<?xml version="1.0" encoding="UTF-8" standalone="no"?>
<svg
   xmlns:dc="http://purl.org/dc/elements/1.1/"
   xmlns:cc="http://creativecommons.org/ns#"
   xmlns:rdf="http://www.w3.org/1999/02/22-rdf-syntax-ns#"
   xmlns:svg="http://www.w3.org/2000/svg"
   xmlns="http://www.w3.org/2000/svg"
   xmlns:sodipodi="http://sodipodi.sourceforge.net/DTD/sodipodi-0.dtd"
   xmlns:inkscape="http://www.inkscape.org/namespaces/inkscape"
   sodipodi:docname="busescool.svg"
   inkscape:export-ydpi="90"
   inkscape:export-xdpi="90"
   inkscape:export-filename="C:\Users\juanc\Dropbox\BusesCool-Publica-Dev\Diseño-Media\Logo\logotipo_bsc_factura.png"
   style="enable-background:new"
   inkscape:version="0.92.5 (2060ec1f9f, 2020-04-08)"
   version="1.1"
   id="svg25979"
   viewBox="0 0 449.69404 388.747"
   height="109.71304mm"
   width="126.91366mm">
  <defs
     id="defs25981">
    <clipPath
       id="clipPath15491-3-1-1-8-6"
       clipPathUnits="userSpaceOnUse">
      <circle
         style="opacity:1;fill:#0066ff;fill-opacity:0;fill-rule:evenodd;stroke:#0000b5;stroke-width:7.88000011;stroke-linejoin:round;stroke-miterlimit:4;stroke-dasharray:none;stroke-opacity:1"
         id="circle15493-8-9-86-9-5"
         cx="648.04285"
         cy="363.91083"
         r="368.06"
         transform="scale(1,-1)" />
    </clipPath>
    <clipPath
       id="clipPath13422-9-3-7-2-5-1"
       clipPathUnits="userSpaceOnUse">
      <path
         inkscape:connector-curvature="0"
         id="path13424-5-8-5-9-6-9"
         d="m 7858.78,4759.31 c 150.92,0 273.25,-122.32 273.25,-273.24 v -332.44 c 0,-150.92 -122.33,-273.25 -273.25,-273.25 H 6711.16 v 878.93 z" />
    </clipPath>
    <filter
       id="filter26643"
       style="color-interpolation-filters:sRGB"
       inkscape:collect="always">
      <feBlend
         id="feBlend26645"
         in2="BackgroundImage"
         mode="lighten"
         inkscape:collect="always" />
    </filter>
  </defs>
  <sodipodi:namedview
     width="350mm"
     inkscape:document-rotation="0"
     inkscape:window-maximized="1"
     inkscape:window-y="27"
     inkscape:window-x="0"
     inkscape:window-height="1016"
     inkscape:window-width="1920"
     fit-margin-bottom="0"
     fit-margin-right="0"
     fit-margin-left="0"
     fit-margin-top="0"
     showgrid="false"
     inkscape:current-layer="g106"
     inkscape:document-units="px"
     inkscape:cy="77.481345"
     inkscape:cx="418.11336"
     inkscape:zoom="0.7"
     inkscape:pageshadow="2"
     inkscape:pageopacity="0.0"
     borderopacity="1.0"
     bordercolor="#666666"
     pagecolor="#ffffff"
     id="base" />
  <metadata
     id="metadata25984">
    <rdf:RDF>
      <cc:Work
         rdf:about="">
        <dc:format>image/svg+xml</dc:format>
        <dc:type
           rdf:resource="http://purl.org/dc/dcmitype/StillImage" />
        <dc:title></dc:title>
      </cc:Work>
    </rdf:RDF>
  </metadata>
  <g
     transform="translate(227.88081,-417.47359)"
     style="filter:url(#filter26643)"
     id="layer1"
     inkscape:groupmode="layer"
     inkscape:label="Capa 1">
    <g
       transform="matrix(0.5,0,0,0.5,85.714288,270.46682)"
       inkscape:export-ydpi="90"
       inkscape:export-xdpi="90"
       inkscape:export-filename="/Users/Nico/Desktop/Logo.png"
       id="g4185">
      <g
         id="g106">
        <g
           clip-path="url(#clipPath15491-3-1-1-8-6)"
           id="g15451-2-4-9-6-3"
           transform="matrix(0.8150845,0,0,-0.8150845,-715.06654,297.39546)">
          <g
             id="g15409-0-0-1-5-3">
            <path
               d="m 221.95831,-784.333 h 799.99599 v 800 H 221.95831 Z"
               style="fill:#0066ff;fill-opacity:1;fill-rule:nonzero;stroke:none"
               id="path13376-3-1-3-4-6-5"
               inkscape:connector-curvature="0" />
            <path
               d="m 466.49231,-481.798 c 0,19.686 -15.958,35.645 -35.644,35.645 -17.645,0 -32.285,-12.825 -35.133,-29.659 -2.846,2.12 -6.373,3.375 -10.192,3.375 -1.611,0 -3.165,-0.227 -4.641,-0.644 -1.935,7.311 -8.594,12.701 -16.512,12.701 -3.07,0 -5.953,-0.814 -8.441,-2.234 -3.536,6.711 -10.574,11.288 -18.687,11.288 -9.661,0 -17.799,-6.492 -20.307,-15.349 -4.385,3.914 -10.165,6.295 -16.505,6.295 -5.889,0 -11.296,-2.057 -15.55,-5.487 0.025,0.442 0.037,0.886 0.037,1.335 0,13.694 -11.103,24.797 -24.798,24.797 -4.736,0 -9.163,-1.331 -12.926,-3.635 -6.433,13.881 -20.479,23.515 -36.784,23.515 -21.566,0 -39.193,-16.851 -40.445,-38.103 -14.128,-2.412 -24.885,-14.707 -24.885,-29.524 0,-16.546 13.414,-29.959 29.961,-29.959 0.252,0 258.685,0 258.685,0 v 0.125 c 18.34,1.467 32.767,16.801 32.767,35.518"
               style="fill:#ffffff;fill-opacity:1;fill-rule:nonzero;stroke:none"
               id="path13380-6-7-4-4-2-1"
               inkscape:connector-curvature="0" />
            <path
               d="m 1040.7043,-551.898 c -4.2,0 -7.99,-1.75 -10.68,-4.555 -1.98,2.228 -4.87,3.635 -8.08,3.635 -1.67,0 -3.25,-0.377 -4.66,-1.05 -2.53,3.864 -6.53,6.682 -11.2,7.667 0.36,1.754 0.55,3.566 0.55,5.425 0,14.784 -11.99,26.77 -26.77,26.77 -11.285,0 -20.932,-6.988 -24.869,-16.871 -1.236,0.256 -2.52,0.391 -3.832,0.391 -9.061,0 -16.629,-6.384 -18.461,-14.897 -2.336,1.036 -4.91999,1.615 -7.64099,1.615 -1.748,0 -3.437,-0.242 -5.043,-0.686 -0.699,10.118 -9.125,18.111 -19.421,18.111 -5.401,0 -10.288,-2.2 -13.815,-5.753 -4.221,2.783 -9.273,4.407 -14.707,4.407 -14.783,0 -26.768,-11.985 -26.768,-26.769 0,-14.784 11.985,-26.769 26.768,-26.769 0.496,0 168.62899,-0.293 168.62899,-0.293 8.18,0 14.81,6.631 14.81,14.813 0,8.18 -6.63,14.809 -14.81,14.809"
               style="fill:#ffffff;fill-opacity:1;fill-rule:nonzero;stroke:none"
               id="path13382-9-0-5-9-8-3"
               inkscape:connector-curvature="0" />
            <path
               d="m 287.56913,-143.91732 h -0.133 c 0.035,0.037 0.072,0.076 0.108,0.113 0.009,-0.037 0.017,-0.076 0.025,-0.113 z m 136.386,36.619 c -4.722,25.781 -27.289,45.324 -54.432,45.324 -30.355,0 -54.993,-24.437 -55.341,-54.711 -1.606,0.367 -3.276,0.567 -4.992,0.567 -5.552,0 -10.625,-2.034 -14.53,-5.387 -1.779,13.381 -13.228,23.707 -27.095,23.707 -2.088,0 -4.121,-0.244 -6.075,-0.686 -7.366,21.924 -28.067,37.725 -52.4715,37.725 -27.5055,0 -50.3164,-20.066 -54.6187,-46.357 -0.2461,0.005 -0.4914,0.019 -0.7395,0.019 -20.334,0 -36.8203,-16.484 -36.8203,-36.82 0,-20.336 16.4863,-36.822 36.8203,-36.822 v -0.19 h 266.4507 v 0.19 c 20.336,0 36.821,16.486 36.821,36.822 0,19.037 -14.449,34.697 -32.977,36.619"
               style="fill:#ffffff;fill-opacity:1;fill-rule:nonzero;stroke:none"
               id="path13384-3-4-1-8-8-0"
               inkscape:connector-curvature="0" />
            <path
               d="m 907.03511,-144.50781 c -2.53459,0 -5.01458,-0.24269 -7.42355,-0.68179 0.008,0.22828 0.0149,0.45354 0.0149,0.68179 0,15.44312 -12.33915,27.9609 -27.561,27.9609 -12.69929,0 -23.38569,-8.71119 -26.58225,-20.56341 -4.29328,4.67998 -10.14692,7.85883 -16.71829,8.69259 1.05348,4.67695 1.63145,9.53654 1.63145,14.53548 0,35.647312 -28.34151,64.57591 -63.41012,64.87986 -35.06921,-0.30395 -63.41011,-29.232548 -63.41011,-64.87986 0,-4.99894 0.57737,-9.85853 1.63143,-14.53548 -6.57136,-0.83376 -12.4256,-4.01261 -16.71887,-8.69259 -3.19598,11.85222 -13.88236,20.56341 -26.58216,20.56341 -15.22185,0 -27.56042,-12.51778 -27.56042,-27.9609 0,-0.22825 0.008,-0.45351 0.0148,-0.68179 -2.40897,0.4391 -4.889,0.68179 -7.42351,0.68179 -23.01193,0 -41.66899,-18.92232 -41.66899,-42.2669 0,-22.21472 16.89712,-40.40959 38.36052,-42.12217 v -0.36521 h 286.71458 v 0.36521 c 21.46342,1.71258 38.36064,19.90745 38.36064,42.12217 0,23.34458 -18.65776,42.2669 -41.66905,42.2669"
               style="fill:#ffffff;fill-opacity:1;fill-rule:nonzero;stroke:none"
               id="path13386-8-2-6-6-6-3"
               inkscape:connector-curvature="0" />
            <path
               d="m 1098.7343,-883.4299 c 0,-110.0201 -99.92,-199.2101 -223.16599,-199.2101 -123.248,0 -223.161,89.19 -223.161,199.2101 0,110.0188 99.913,199.2069 223.161,199.2069 123.24599,0 223.16599,-89.1881 223.16599,-199.2069"
               style="fill:#241e1b;fill-opacity:1;fill-rule:nonzero;stroke:none"
               id="path13396-3-2-7-5-9-6"
               inkscape:connector-curvature="0" />
            <path
               d="m 542.52031,-877.0189 c 0,-110.0211 -99.913,-199.2111 -223.162,-199.2111 -123.248,0 -223.161,89.19 -223.161,199.2111 0,110.0191 99.913,199.2069 223.161,199.2069 123.249,0 223.162,-89.1878 223.162,-199.2069"
               style="fill:#241e1b;fill-opacity:1;fill-rule:nonzero;stroke:none"
               id="path13398-6-7-4-1-7-0"
               inkscape:connector-curvature="0" />
            <path
               d="m 934.1183,-851.4049 c 0,-139.3751 -129.98399,-252.3651 -290.32799,-252.3651 -160.344,0 -290.328,112.99 -290.328,252.3651 0,139.3789 67.578,252.3689 290.328,252.3689 222.75,0 290.32799,-112.99 290.32799,-252.3689"
               style="fill:#3a312d;fill-opacity:1;fill-rule:nonzero;stroke:none"
               id="path13400-0-2-1-2-2-2"
               inkscape:connector-curvature="0" />
            <path
               d="m 819.43231,-366.693 c 0,12.299 3.878,23.221 9.877,30.124 -10.551,9.948 -24.671,10.822 -25.612,10.868 l 0.251,5.46 0.234,5.459 c 0.307,-0.014 20.136,-1.123 34.097,-15.252 1.949,0.741 3.986,1.139 6.087,1.139 13.77,0 24.933,-16.923 24.933,-37.798 0,-20.876 -11.163,-37.8 -24.933,-37.8 -1.96,0 -3.865,0.355 -5.694,1.004 -13.294,-13.756 -31.969,-14.653 -32.261,-14.663 l -0.371,10.925 c 0.87,0.029 13.734,0.654 23.57,10.07 -6.171,6.879 -10.178,17.96 -10.178,30.464"
               style="fill:#3a312d;fill-opacity:1;fill-rule:nonzero;stroke:none"
               id="path13402-1-3-2-9-8-4"
               inkscape:connector-curvature="0" />
            <path
               d="m 472.86631,-366.693 c 0,12.299 -3.876,23.221 -9.875,30.124 10.55,9.948 24.668,10.822 25.61,10.868 l -0.25,5.46 -0.235,5.459 c -0.307,-0.014 -20.136,-1.123 -34.097,-15.252 -1.947,0.741 -3.986,1.139 -6.085,1.139 -13.77,0 -24.934,-16.923 -24.934,-37.798 0,-20.876 11.164,-37.8 24.934,-37.8 1.96,0 3.864,0.355 5.693,1.004 13.294,-13.756 31.97,-14.653 32.261,-14.663 l 0.371,10.925 c -0.87,0.029 -13.735,0.654 -23.571,10.07 6.172,6.879 10.178,17.96 10.178,30.464"
               style="fill:#3a312d;fill-opacity:1;fill-rule:nonzero;stroke:none"
               id="path13404-9-3-2-8-5-9"
               inkscape:connector-curvature="0" />
            <path
               d="m 809.38331,-316.094 c -11.251,46.783 -80.038,73.219 -163.233,73.219 -83.194,0 -151.982,-26.436 -163.232,-73.219 -2.191,-3.931 -3.447,-8.452 -3.447,-13.27 v -148.918 c 0,-15.092 12.231,-27.325 27.323,-27.325 h 278.71 c 15.092,0 27.324,12.233 27.324,27.325 v 148.918 c 0,4.818 -1.257,9.339 -3.445,13.27"
               style="fill:#da9424;fill-opacity:1;fill-rule:nonzero;stroke:none"
               id="path13406-6-7-8-0-2-6"
               inkscape:connector-curvature="0" />
            <path
               d="m 760.91231,-308.402 c 15.092,0 27.325,-12.232 27.325,-27.324 v -33.244 c 0,-15.092 -12.233,-27.325 -27.325,-27.325 h -114.762 v 87.893 h 114.762"
               style="fill:#5599ff;fill-opacity:1;fill-rule:nonzero;stroke:none"
               id="path13408-9-9-4-7-6-6"
               inkscape:connector-curvature="0" />
            <path
               d="m 735.51931,-617.989 c 0,-13.569 11.001,-24.569 24.571,-24.569 h 22.933 c 13.568,0 24.569,11 24.569,24.569 v 41.769 c 0,13.57 -11.001,24.57 -24.569,24.57 h -22.933 c -13.57,0 -24.571,-11 -24.571,-24.57 v -41.769"
               style="fill:#2a231f;fill-opacity:1;fill-rule:nonzero;stroke:none"
               id="path13410-7-4-8-2-4-0"
               inkscape:connector-curvature="0" />
            <path
               d="m 531.38731,-308.402 c -15.092,0 -27.324,-12.232 -27.324,-27.324 v -33.244 c 0,-15.092 12.232,-27.325 27.324,-27.325 h 114.763 v 87.893 h -114.763"
               style="fill:#5599ff;fill-opacity:1;fill-rule:nonzero;stroke:none"
               id="path13412-7-5-7-7-0-5"
               inkscape:connector-curvature="0" />
            <path
               d="m 646.15031,-301.57 h -7.743 v -107.021 h 15.484 v 107.021 h -7.741"
               style="fill:#e5a42b;fill-opacity:1;fill-rule:nonzero;stroke:none"
               id="path13414-0-6-0-7-3-5"
               inkscape:connector-curvature="0" />
            <path
               d="m 556.77931,-617.989 c 0,-13.569 -10.999,-24.569 -24.57,-24.569 h -22.932 c -13.57,0 -24.57,11 -24.57,24.569 v 41.769 c 0,13.57 11,24.57 24.57,24.57 h 22.932 c 13.571,0 24.57,-11 24.57,-24.57 v -41.769"
               style="fill:#2a231f;fill-opacity:1;fill-rule:nonzero;stroke:none"
               id="path13416-6-9-1-8-1-1"
               inkscape:connector-curvature="0" />
            <g
               transform="matrix(0.1,0,0,0.1,-24.965688,-784.333)"
               id="g13418-0-1-8-4-0-3">
              <g
                 id="g13420-9-9-4-7-5-9"
                 clip-path="url(#clipPath13422-9-3-7-2-5-1)">
                <path
                   d="m 7661.24,3566.35 -208.22,622.78 c 34.59,3.18 70.21,1.09 105.84,-7.06 181.43,-41.5 295.25,-222.86 253.74,-404.28 -20.92,-91.4 -77.34,-165.59 -151.36,-211.44 z m -506.65,361.99 c 25.58,111.8 104.29,197.83 203.37,237.78 l 213.57,-638.82 c -51.72,-14.04 -107.44,-16.01 -163.22,-3.24 -181.41,41.49 -295.22,222.85 -253.72,404.28 z m 426.01,348.74 c -233.78,53.49 -467.51,-93.2 -521.02,-327 -53.5,-233.81 93.2,-467.54 327,-521.02 233.81,-53.5 467.55,93.18 521.05,326.99 53.48,233.79 -93.23,467.54 -327.03,521.03"
                   style="fill:#3a312d;fill-opacity:1;fill-rule:nonzero;stroke:none"
                   id="path13426-4-0-2-6-0-6"
                   inkscape:connector-curvature="0" />
              </g>
            </g>
            <path
               d="m 809.38331,-461.806 c -11.251,46.783 -80.038,74.586 -163.233,74.586 -83.194,0 -151.982,-27.803 -163.232,-74.586 -2.191,-3.931 -3.447,-8.453 -3.447,-13.271 v -79.241 c 0,-15.089 12.231,-27.324 27.323,-27.324 h 278.71 c 15.092,0 27.324,12.235 27.324,27.324 v 79.241 c 0,4.818 -1.257,9.34 -3.445,13.271"
               style="fill:#f8a629;fill-opacity:1;fill-rule:nonzero;stroke:none"
               id="path13436-2-8-6-8-5-0"
               inkscape:connector-curvature="0" />
            <path
               d="m 732.90431,-473.716 c 0,-15.59 12.642,-28.232 28.234,-28.232 15.595,0 28.237,12.642 28.237,28.232 0,15.596 -12.642,28.236 -28.237,28.236 -15.592,0 -28.234,-12.64 -28.234,-28.236"
               style="fill:#f5f6f2;fill-opacity:1;fill-rule:nonzero;stroke:none"
               id="path13438-2-7-3-6-7-1"
               inkscape:connector-curvature="0" />
            <path
               d="m 744.74431,-522.165 c 0,-4.43 3.592,-8.02 8.022,-8.02 h 19.48 c 4.43,0 8.02,3.59 8.02,8.02 v 0 c 0,4.431 -3.59,8.021 -8.02,8.021 h -19.48 c -4.43,0 -8.022,-3.59 -8.022,-8.021 v 0"
               style="fill:#e4383e;fill-opacity:1;fill-rule:nonzero;stroke:none"
               id="path13440-5-7-6-6-0-4"
               inkscape:connector-curvature="0" />
            <path
               d="m 815.78931,-562.97 h -339.278 c -5.535,0 -10.019,-4.486 -10.019,-10.019 0,-5.534 4.484,-10.018 10.019,-10.018 h 339.278 c 5.533,0 10.018,4.484 10.018,10.018 0,5.533 -4.485,10.019 -10.018,10.019"
               style="fill:#342d28;fill-opacity:1;fill-rule:nonzero;stroke:none"
               id="path13442-5-3-4-8-2-8"
               inkscape:connector-curvature="0" />
            <path
               d="m 559.39431,-473.716 c 0,-15.59 -12.641,-28.232 -28.235,-28.232 -15.592,0 -28.234,12.642 -28.234,28.232 0,15.596 12.642,28.236 28.234,28.236 15.594,0 28.235,-12.64 28.235,-28.236"
               style="fill:#f5f6f2;fill-opacity:1;fill-rule:nonzero;stroke:none"
               id="path13444-4-6-1-8-5-1"
               inkscape:connector-curvature="0" />
            <path
               d="m 547.55531,-522.165 c 0,-4.43 -3.591,-8.02 -8.021,-8.02 h -19.481 c -4.43,0 -8.019,3.59 -8.019,8.02 v 0 c 0,4.431 3.589,8.021 8.019,8.021 h 19.481 c 4.43,0 8.021,-3.59 8.021,-8.021 v 0"
               style="fill:#e4383e;fill-opacity:1;fill-rule:nonzero;stroke:none"
               id="path13446-1-7-8-2-9-3"
               inkscape:connector-curvature="0" />
            <path
               d="m 646.15031,-251.551 c -63.668,0 -118.279,-16.587 -141.716,-46.615 h 283.431 c -23.437,30.028 -78.048,46.615 -141.715,46.615"
               style="fill:#f8a629;fill-opacity:1;fill-rule:nonzero;stroke:none"
               id="path13448-9-2-2-1-9-9"
               inkscape:connector-curvature="0" />
            <path
               d="m 556.10231,-284.163 c 0,-4.392 -3.561,-7.953 -7.954,-7.953 -4.392,0 -7.953,3.561 -7.953,7.953 0,4.393 3.561,7.953 7.953,7.953 4.393,0 7.954,-3.56 7.954,-7.953"
               style="fill:#2f8587;fill-opacity:1;fill-rule:nonzero;stroke:none"
               id="path13450-1-6-8-2-5-6"
               inkscape:connector-curvature="0" />
            <path
               d="m 755.27431,-284.163 c 0,-4.392 -3.559,-7.953 -7.953,-7.953 -4.391,0 -7.953,3.561 -7.953,7.953 0,4.393 3.562,7.953 7.953,7.953 4.394,0 7.953,-3.56 7.953,-7.953"
               style="fill:#2f8587;fill-opacity:1;fill-rule:nonzero;stroke:none"
               id="path13452-6-7-3-1-2-8"
               inkscape:connector-curvature="0" />
            <path
               d="m 723.36131,-511.349 c 0,-15.97 -12.948,-28.922 -28.921,-28.922 h -99.473 c -15.974,0 -28.922,12.952 -28.922,28.922 v 36.949 c 0,15.973 12.948,28.92 28.922,28.92 h 99.473 c 15.973,0 28.921,-12.947 28.921,-28.92 v -36.949"
               style="fill:#da9424;fill-opacity:1;fill-rule:nonzero;stroke:none"
               id="path13454-0-4-3-8-3-6"
               inkscape:connector-curvature="0" />
            <path
               d="m 704.89731,-487.564 h -117.495 c -3.395,0 -6.148,-2.752 -6.148,-6.148 0,-3.395 2.753,-6.148 6.148,-6.148 h 117.495 c 3.396,0 6.149,2.753 6.149,6.148 0,3.396 -2.753,6.148 -6.149,6.148"
               style="fill:#3a312d;fill-opacity:1;fill-rule:nonzero;stroke:none"
               id="path13456-2-5-7-1-4-6"
               inkscape:connector-curvature="0" />
            <path
               d="m 704.89731,-506.478 h -117.495 c -3.395,0 -6.148,-2.754 -6.148,-6.148 0,-3.397 2.753,-6.149 6.148,-6.149 h 117.495 c 3.396,0 6.149,2.752 6.149,6.149 0,3.394 -2.753,6.148 -6.149,6.148"
               style="fill:#3a312d;fill-opacity:1;fill-rule:nonzero;stroke:none"
               id="path13458-6-4-8-3-7-0"
               inkscape:connector-curvature="0" />
            <path
               d="m 587.40231,-480.944 h 117.495 c 3.396,0 6.149,2.751 6.149,6.148 0,3.396 -2.753,6.148 -6.149,6.148 h -117.495 c -3.395,0 -6.148,-2.752 -6.148,-6.148 0,-3.397 2.753,-6.148 6.148,-6.148"
               style="fill:#3a312d;fill-opacity:1;fill-rule:nonzero;stroke:none"
               id="path13460-3-5-9-3-2-9"
               inkscape:connector-curvature="0" />
            <path
               d="m 700.47231,-552.843 c 0,-5.785 -4.689,-10.473 -10.473,-10.473 h -90.588 c -5.783,0 -10.475,4.688 -10.475,10.473 v 10.16 c 0,5.785 4.692,10.473 10.475,10.473 h 90.588 c 5.784,0 10.473,-4.688 10.473,-10.473 v -10.16"
               style="fill:#f5f6f2;fill-opacity:1;fill-rule:nonzero;stroke:none"
               id="path13462-2-1-5-2-0-9"
               inkscape:connector-curvature="0" />
            <path
               d="m 543.08731,-285.338 c 0,-2.948 -2.39,-5.338 -5.338,-5.338 -2.949,0 -5.339,2.39 -5.339,5.338 0,2.949 2.39,5.339 5.339,5.339 2.948,0 5.338,-2.39 5.338,-5.339"
               style="fill:#f0453a;fill-opacity:1;fill-rule:nonzero;stroke:none"
               id="path13464-2-2-7-3-4-7"
               inkscape:connector-curvature="0" />
            <path
               d="m 761.14031,-285.338 c 0,-2.948 -2.39,-5.338 -5.339,-5.338 -2.949,0 -5.339,2.39 -5.339,5.338 0,2.949 2.39,5.339 5.339,5.339 2.949,0 5.339,-2.39 5.339,-5.339"
               style="fill:#f0453a;fill-opacity:1;fill-rule:nonzero;stroke:none"
               id="path13466-0-6-0-4-3-8"
               inkscape:connector-curvature="0" />
            <path
               d="m 666.79831,-624.655 -37,0.103 0.071,25.5 37,-0.103 -0.071,-25.5"
               style="fill:#ffffff;fill-opacity:1;fill-rule:nonzero;stroke:none"
               id="path13468-7-1-5-0-8-5"
               inkscape:connector-curvature="0" />
          </g>
          <path
             inkscape:connector-curvature="0"
             id="path13470-2-7-0-5-9-4"
             style="fill:#ffffff;fill-opacity:1;fill-rule:nonzero;stroke:none"
             d="m 666.58931,-698.883 -37,0.1039 0.139,49.8101 37,-0.103 z m -0.209,-74.2289 -37,0.1051 0.14,49.8109 37,-0.1039 z m -0.208,-74.227 -37,0.1039 0.139,49.8102 37,-0.1031 -0.139,-49.811" />
        </g>
        <text
           xml:space="preserve"
           style="font-style:normal;font-variant:normal;font-weight:normal;font-stretch:normal;font-size:7.12940407px;line-height:0%;font-family:Gulim;-inkscape-font-specification:'Gulim, Normal';text-align:start;letter-spacing:-0.12441463px;word-spacing:0px;writing-mode:lr-tb;text-anchor:start;fill:#0066ff;fill-opacity:1;stroke:none;stroke-width:0.59411699px;stroke-linecap:butt;stroke-linejoin:miter;stroke-opacity:1"
           x="-635.34045"
           y="1091.7257"
           id="text5949-1-3-7-9-9-3-1-5-1-6-7"
           transform="scale(1.0214561,0.97899459)"><tspan
             sodipodi:role="line"
             id="tspan5951-1-2-2-0-3-2-1-3-6-42-6"
             x="-635.34045"
             y="1091.7257"
             style="font-style:normal;font-variant:normal;font-weight:normal;font-stretch:normal;font-size:213.24639893px;line-height:125%;font-family:Gulim;-inkscape-font-specification:'Gulim, Normal';text-align:start;letter-spacing:-19.9025631px;writing-mode:lr-tb;text-anchor:start;fill:#0066ff;fill-opacity:1;stroke-width:0.59411699px"><tspan
   id="tspan15698-3-9-1-5-0"
   style="font-style:normal;font-variant:normal;font-weight:normal;font-stretch:normal;font-size:213.24639893px;line-height:125%;font-family:Gulim;-inkscape-font-specification:'Gulim, Normal';text-align:start;letter-spacing:-19.9025631px;writing-mode:lr-tb;text-anchor:start;fill:#4d4d4d;stroke-width:0.59411699px">Bus</tspan> es<tspan
   id="tspan15700-5-1-8-0-0"
   style="font-style:normal;font-variant:normal;font-weight:normal;font-stretch:normal;font-size:213.24639893px;line-height:125%;font-family:Gulim;-inkscape-font-specification:'Gulim, Normal';text-align:start;letter-spacing:-19.9025631px;writing-mode:lr-tb;text-anchor:start;fill:#4d4d4d;stroke-width:0.59411699px">Cool</tspan></tspan></text>
      </g>
    </g>
  </g>
</svg>
